<?xml version="1.0" encoding="UTF-8" standalone="no"?>
<svg width="73px" height="47px" viewBox="0 0 73 47" version="1.1" xmlns="http://www.w3.org/2000/svg" xmlns:xlink="http://www.w3.org/1999/xlink">
    <!-- Generator: Sketch 41 (35326) - http://www.bohemiancoding.com/sketch -->
    <title>Slice 1</title>
    <desc>Created with Sketch.</desc>
    <defs></defs>
    <g id="Page-1" stroke="none" stroke-width="1" fill="none" fill-rule="evenodd">
        <path d="M10.375,9.375 L10.375,40.625 L26,40.625 L26,37.5 L29.125,37.5 L29.125,12.5 L26,12.5 L26,9.375 L10.375,9.375 Z M4.125,46.875 L4.125,3.125 L29.125,3.125 L29.125,6.25 L32.25,6.25 L32.25,9.375 L35.375,9.375 L35.375,40.625 L32.25,40.625 L32.25,43.75 L29.125,43.75 L29.125,46.875 L4.125,46.875 Z M69.75,9.375 L72.875,9.375 L72.875,15.625 L66.625,15.625 L66.625,12.5 L63.5,12.5 L63.5,9.375 L51,9.375 L51,12.5 L47.875,12.5 L47.875,18.75 L51,18.75 L51,21.875 L66.625,21.875 L66.625,25 L69.75,25 L69.75,28.125 L72.875,28.125 L72.875,40.625 L69.75,40.625 L69.75,43.75 L66.625,43.75 L66.625,46.875 L47.875,46.875 L47.875,43.75 L44.75,43.75 L44.75,40.625 L41.625,40.625 L41.625,34.375 L47.875,34.375 L47.875,37.5 L51,37.5 L51,40.625 L63.5,40.625 L63.5,37.5 L66.625,37.5 L66.625,31.25 L63.5,31.25 L63.5,28.125 L47.875,28.125 L47.875,25 L44.75,25 L44.75,21.875 L41.625,21.875 L41.625,9.375 L44.75,9.375 L44.75,6.25 L47.875,6.25 L47.875,3.125 L66.625,3.125 L66.625,6.25 L69.75,6.25 L69.75,9.375 Z" id="DS" fill="#EF382B"></path>
        <path d="M6.375,6.375 L6.375,37.625 L22,37.625 L22,34.5 L25.125,34.5 L25.125,9.5 L22,9.5 L22,6.375 L6.375,6.375 Z M0.125,43.875 L0.125,0.125 L25.125,0.125 L25.125,3.25 L28.25,3.25 L28.25,6.375 L31.375,6.375 L31.375,37.625 L28.25,37.625 L28.25,40.75 L25.125,40.75 L25.125,43.875 L0.125,43.875 Z M65.75,6.375 L68.875,6.375 L68.875,12.625 L62.625,12.625 L62.625,9.5 L59.5,9.5 L59.5,6.375 L47,6.375 L47,9.5 L43.875,9.5 L43.875,15.75 L47,15.75 L47,18.875 L62.625,18.875 L62.625,22 L65.75,22 L65.75,25.125 L68.875,25.125 L68.875,37.625 L65.75,37.625 L65.75,40.75 L62.625,40.75 L62.625,43.875 L43.875,43.875 L43.875,40.75 L40.75,40.75 L40.75,37.625 L37.625,37.625 L37.625,31.375 L43.875,31.375 L43.875,34.5 L47,34.5 L47,37.625 L59.5,37.625 L59.5,34.5 L62.625,34.5 L62.625,28.25 L59.5,28.25 L59.5,25.125 L43.875,25.125 L43.875,22 L40.75,22 L40.75,18.875 L37.625,18.875 L37.625,6.375 L40.75,6.375 L40.75,3.25 L43.875,3.25 L43.875,0.125 L62.625,0.125 L62.625,3.25 L65.75,3.25 L65.75,6.375 Z" id="DS" fill="#FFFFFF"></path>
    </g>
</svg>